<?xml version="1.0" standalone="no"?>
<!DOCTYPE svg PUBLIC "-//W3C//DTD SVG 20010904//EN"
 "http://www.w3.org/TR/2001/REC-SVG-20010904/DTD/svg10.dtd">
<svg version="1.0" xmlns="http://www.w3.org/2000/svg"
 width="666.000000pt" height="666.000000pt" viewBox="0 0 666.000000 666.000000"
 preserveAspectRatio="xMidYMid meet">
<metadata>
Created by potrace 1.14, written by Peter Selinger 2001-2017
</metadata>
<g transform="translate(0.000000,666.000000) scale(0.100000,-0.100000)"
fill="#000000" stroke="none">
<path d="M3264 6431 c-3 -3 -27 -7 -52 -8 -26 0 -69 -6 -97 -12 -27 -7 -57
-12 -65 -13 -8 0 -19 -4 -25 -8 -5 -5 -27 -11 -47 -15 -21 -4 -38 -11 -38 -15
0 -5 -8 -7 -17 -6 -10 2 -20 0 -23 -3 -3 -3 -44 -26 -92 -50 -49 -25 -88 -49
-88 -55 0 -5 -3 -6 -6 -3 -4 3 -16 0 -28 -8 -13 -10 -45 -15 -93 -15 -39 0
-74 -4 -78 -10 -3 -5 -21 -7 -40 -5 -19 3 -35 1 -35 -4 0 -5 -18 -12 -40 -16
-22 -4 -40 -11 -40 -16 0 -6 -5 -7 -11 -3 -6 3 -14 3 -18 -2 -7 -11 -63 -38
-73 -36 -5 1 -8 -2 -8 -8 0 -5 -14 -17 -31 -26 -18 -9 -49 -33 -70 -54 -22
-21 -39 -36 -39 -33 0 3 -8 -4 -19 -15 -10 -12 -21 -19 -25 -15 -3 3 -6 0 -6
-7 0 -17 -200 -220 -217 -220 -7 0 -13 -5 -13 -10 0 -6 -8 -13 -17 -17 -20 -7
-131 -117 -150 -148 -30 -50 -47 -94 -44 -117 1 -10 -2 -18 -7 -18 -4 0 -8
-17 -7 -37 2 -44 -16 -85 -54 -122 -15 -15 -30 -34 -34 -44 -3 -9 -10 -17 -15
-17 -5 0 -15 -15 -23 -32 -7 -18 -18 -36 -25 -41 -7 -4 -15 -25 -19 -47 -4
-22 -11 -42 -16 -46 -5 -3 -7 -16 -5 -30 3 -13 1 -24 -3 -24 -5 0 -11 -43 -14
-96 -3 -52 -11 -102 -17 -110 -7 -7 -9 -14 -5 -14 4 0 3 -6 -3 -12 -22 -28
-32 -189 -17 -276 9 -55 42 -150 62 -181 20 -31 34 -141 18 -141 -7 0 -10 -12
-7 -30 2 -16 0 -30 -5 -30 -10 0 -12 -129 -2 -145 4 -5 10 -29 14 -52 4 -23
15 -53 26 -67 10 -13 19 -29 19 -35 0 -6 4 -11 8 -11 9 0 93 -115 104 -142 4
-10 12 -18 17 -18 5 0 12 -13 16 -29 3 -16 13 -35 20 -41 8 -7 17 -28 21 -49
4 -20 10 -41 15 -47 5 -5 6 -22 3 -37 -2 -15 0 -27 6 -27 5 0 10 -7 10 -15 0
-9 7 -18 15 -21 8 -4 13 -10 10 -14 -3 -5 4 -15 15 -23 11 -7 17 -17 14 -20
-4 -3 10 -29 30 -57 20 -27 36 -54 36 -60 0 -5 6 -13 13 -17 7 -4 18 -19 25
-33 32 -62 44 -80 53 -80 5 0 8 -3 7 -7 -2 -11 35 -73 45 -73 4 0 7 -7 7 -15
0 -7 7 -18 16 -23 9 -5 16 -13 16 -18 1 -18 21 -54 30 -54 5 0 6 -4 3 -10 -3
-5 -2 -10 4 -10 5 0 12 -14 16 -30 4 -17 10 -30 15 -30 4 0 10 -8 13 -17 3
-10 14 -34 25 -53 21 -38 77 -159 78 -169 0 -3 6 -19 14 -36 35 -79 41 -96 46
-124 4 -17 10 -31 14 -31 5 0 6 -9 3 -20 -3 -11 -1 -20 5 -20 6 0 13 -22 17
-50 4 -27 11 -50 15 -50 5 0 7 -9 5 -20 -2 -11 0 -22 5 -25 5 -3 12 -33 16
-66 4 -32 10 -62 14 -64 5 -3 14 -52 21 -110 7 -58 16 -105 20 -105 4 0 10
-18 14 -40 4 -22 11 -40 16 -40 6 0 8 -4 5 -9 -3 -5 1 -14 9 -21 8 -7 15 -19
15 -26 0 -8 4 -14 9 -14 4 0 28 -18 53 -40 44 -38 45 -42 52 -112 4 -40 7
-106 6 -146 0 -40 3 -78 7 -85 4 -6 9 -50 11 -97 6 -205 21 -377 36 -405 9
-17 16 -34 16 -38 0 -10 42 -71 52 -75 7 -3 71 -52 96 -72 6 -6 12 -8 12 -4 0
4 14 -5 30 -21 17 -16 30 -25 30 -19 0 5 5 1 11 -8 5 -10 15 -18 21 -18 6 0
24 -13 40 -30 15 -16 32 -30 36 -30 4 0 55 -47 115 -105 59 -58 114 -105 122
-105 8 0 15 -5 15 -11 0 -5 4 -8 9 -4 5 3 12 1 16 -5 3 -5 15 -10 26 -10 10 0
19 -4 19 -8 0 -5 14 -7 30 -4 18 3 30 0 30 -7 0 -7 41 -11 130 -11 72 0 130 4
130 9 0 4 10 8 23 8 33 0 87 14 93 24 3 5 10 7 15 4 5 -4 9 -1 9 4 0 6 5 11
11 11 13 0 79 66 102 103 10 15 24 27 32 27 8 0 18 6 22 13 11 16 69 57 83 57
6 0 13 7 16 15 4 8 12 15 20 15 8 0 14 4 14 9 0 5 8 11 18 13 31 8 37 12 58
35 12 13 25 23 29 23 16 0 130 126 150 164 11 22 20 43 20 47 0 4 3 11 8 15 4
4 7 20 7 35 0 15 4 30 8 33 5 3 8 47 7 98 0 51 2 98 6 103 9 14 21 184 20 278
-1 42 2 77 7 77 5 0 8 33 8 72 -1 74 15 128 38 128 15 0 96 84 96 99 0 6 5 11
11 11 6 0 9 7 5 15 -3 8 -1 15 4 15 5 0 12 20 16 45 3 25 10 45 14 45 4 0 6
19 5 43 -1 23 2 47 6 52 6 9 17 71 20 115 0 8 3 22 6 30 4 8 7 22 7 30 1 8 4
20 7 25 4 6 10 28 14 50 9 44 11 53 15 60 1 3 3 8 4 13 15 54 30 99 37 108 4
6 13 34 20 62 6 29 15 52 20 52 5 0 9 6 9 13 0 7 9 30 20 52 11 22 20 43 20
49 0 14 54 120 65 128 6 4 6 8 1 8 -4 0 4 16 18 35 15 19 23 35 19 35 -4 0 -3
4 2 8 6 4 16 18 23 32 7 14 23 43 37 65 13 22 31 55 40 73 8 17 20 32 25 32 6
0 10 5 10 10 0 14 41 72 58 83 6 4 12 15 12 23 0 8 7 17 15 20 8 4 13 9 10 14
-2 4 7 17 20 30 13 13 22 27 19 31 -3 5 0 9 6 9 6 0 15 11 20 25 5 14 14 25
19 25 5 0 12 13 16 30 4 16 10 30 14 30 4 0 13 17 20 38 8 20 17 39 20 42 7 6
72 137 71 145 0 3 11 28 25 55 14 27 25 52 26 55 1 19 23 65 31 65 5 0 6 9 3
20 -3 11 -2 20 4 20 5 0 12 13 16 30 4 16 11 30 16 30 5 0 8 3 7 8 -2 10 25
66 36 73 12 9 26 211 26 372 1 75 5 127 10 127 6 0 10 47 10 115 0 64 -4 115
-9 115 -5 0 -15 26 -22 58 -7 31 -17 60 -22 63 -5 4 -8 21 -5 38 2 17 1 31 -2
31 -6 0 -14 53 -23 150 -1 14 -6 31 -10 38 -5 7 -7 22 -6 35 3 26 -10 77 -23
94 -5 7 -7 17 -3 23 3 5 1 10 -5 10 -6 0 -13 8 -17 18 -3 9 -21 36 -40 59 -18
23 -33 46 -33 52 0 5 -7 14 -16 19 -16 9 -33 34 -59 90 -48 102 -69 148 -70
157 -3 15 -18 49 -24 55 -3 3 -14 20 -25 39 -23 41 -52 72 -61 63 -3 -4 -9 -2
-13 4 -4 6 -29 21 -57 34 -42 20 -138 100 -120 100 3 0 -14 20 -38 45 -25 25
-49 45 -55 45 -5 0 -12 6 -15 13 -3 6 -27 23 -53 37 -27 14 -55 31 -62 37 -7
7 -24 16 -38 19 -13 3 -24 10 -24 16 0 5 -4 6 -10 3 -5 -3 -10 -3 -10 2 0 13
-116 78 -132 75 -5 -1 -8 2 -8 7 0 9 -58 35 -72 32 -5 0 -8 3 -8 8 0 5 -18 12
-40 16 -22 4 -40 10 -40 15 0 4 -28 13 -62 20 -35 7 -68 17 -73 21 -6 4 -34
11 -63 15 -28 3 -52 11 -52 16 0 6 -7 7 -16 4 -9 -4 -22 -2 -28 3 -7 6 -57 13
-112 17 -54 4 -103 10 -109 14 -5 3 -38 6 -72 5 -35 0 -63 2 -63 6 0 7 -86 18
-180 23 -30 2 -55 4 -55 6 0 5 -125 6 -131 1z m166 -132 c44 -6 80 -15 80 -20
0 -5 7 -9 15 -9 22 0 81 -56 99 -94 9 -19 17 -51 18 -72 2 -22 8 -42 13 -46 6
-5 5 -8 -2 -8 -7 0 -12 -10 -11 -23 3 -40 -55 -137 -133 -218 -41 -44 -78 -76
-82 -73 -4 4 -7 3 -7 -3 0 -6 -10 -14 -22 -18 -13 -4 -25 -8 -28 -10 -46 -20
-74 -34 -70 -35 24 -6 50 -5 50 2 0 4 10 8 21 8 31 0 99 22 99 32 0 4 7 8 15
8 8 0 15 5 15 10 0 6 4 9 8 8 5 -2 31 20 58 47 52 53 98 125 108 172 4 16 9
39 12 53 10 40 12 150 3 144 -5 -3 -8 17 -8 45 1 43 4 49 21 46 10 -2 16 0 13
4 -7 12 38 19 91 15 49 -4 129 -53 140 -86 3 -10 10 -16 15 -13 8 5 26 -69 21
-87 -1 -5 2 -8 6 -8 5 0 9 -7 9 -15 0 -8 -4 -12 -7 -10 -4 3 -10 -14 -13 -37
-3 -22 -10 -44 -15 -47 -5 -3 -15 -17 -22 -31 -7 -14 -42 -62 -77 -107 -35
-44 -70 -101 -79 -125 -17 -45 -25 -128 -13 -128 4 0 10 -17 14 -37 4 -21 9
-42 13 -47 20 -33 21 -188 0 -221 -3 -5 -9 -25 -13 -42 -3 -18 -10 -33 -15
-33 -4 0 -13 -13 -20 -29 -6 -16 -20 -37 -31 -47 -10 -9 -19 -24 -18 -33 0
-10 2 -12 6 -3 2 6 9 10 14 7 22 -14 94 83 104 140 4 22 11 45 15 50 4 6 6 18
5 28 -2 9 1 17 6 17 5 0 9 6 9 13 1 32 94 106 144 114 11 2 33 10 48 18 16 7
25 9 22 3 -5 -7 -2 -8 7 -2 17 10 25 12 112 20 49 5 67 4 67 -5 0 -7 4 -9 10
-6 15 9 76 -58 90 -100 16 -49 8 -160 -14 -184 -9 -10 -16 -22 -16 -28 0 -5
-11 -22 -25 -37 -30 -32 -36 -67 -8 -45 10 8 24 20 31 27 7 6 18 12 23 12 6 0
8 4 5 9 -3 4 13 14 34 21 22 7 40 17 40 21 0 13 108 3 125 -11 9 -7 18 -10 21
-8 5 6 31 -14 88 -68 31 -29 71 -116 58 -128 -3 -3 -1 -6 5 -6 15 0 13 -108
-3 -147 -8 -18 -14 -35 -14 -38 0 -25 -2 -34 -18 -55 -30 -40 -115 -130 -119
-126 -2 2 -19 -9 -36 -25 -18 -16 -47 -35 -64 -41 -18 -7 -33 -16 -33 -21 0
-4 -4 -6 -9 -2 -6 3 -16 -1 -23 -8 -7 -8 -20 -12 -30 -9 -10 2 -24 0 -31 -6
-14 -12 -111 -10 -141 3 -15 6 -17 5 -11 -5 6 -9 4 -11 -5 -5 -18 11 -60 15
-60 5 0 -4 -10 -8 -22 -8 -13 0 -43 -6 -68 -13 -25 -7 -48 -12 -52 -11 -5 1
-8 -1 -8 -6 0 -4 -14 -13 -32 -21 -62 -28 -190 -179 -180 -213 1 -5 -2 -8 -8
-8 -5 0 -10 -7 -10 -15 0 -8 -3 -15 -7 -15 -5 0 -9 -11 -9 -24 -4 -57 -96
-196 -132 -196 -7 0 -11 -4 -7 -9 3 -6 -10 -13 -30 -17 -19 -3 -38 -10 -41
-15 -3 -5 -10 -7 -15 -3 -13 8 -99 -16 -99 -27 0 -12 18 -21 24 -11 2 4 24 9
48 10 70 3 140 13 165 23 16 6 22 5 18 -1 -3 -6 4 -10 16 -10 12 0 37 -13 56
-30 18 -16 31 -30 27 -30 -13 0 90 -93 146 -130 12 -8 30 -22 39 -30 33 -28
62 -100 41 -100 -6 0 -9 -3 -8 -7 3 -13 -14 -56 -28 -71 -8 -7 -14 -20 -14
-28 0 -9 -5 -12 -12 -8 -7 4 -10 4 -6 -1 4 -4 0 -14 -10 -21 -9 -7 -12 -14 -5
-14 18 0 94 80 109 116 7 17 19 38 26 46 7 8 18 22 23 32 12 21 77 59 117 69
34 9 98 46 98 57 0 14 -22 23 -29 12 -5 -9 -38 -20 -116 -38 -42 -10 -116 -11
-121 -2 -3 4 -14 8 -25 8 -32 0 -97 38 -146 86 -25 24 -43 44 -39 44 3 0 0 10
-8 23 -7 12 -17 36 -21 52 -10 38 -13 145 -4 150 3 3 6 17 7 34 2 62 103 231
139 231 7 0 18 8 25 18 25 33 140 80 182 73 11 -2 16 2 11 8 -10 17 101 8 155
-13 27 -10 54 -29 65 -46 11 -17 24 -30 29 -30 5 0 42 33 82 73 81 80 111 106
165 145 20 15 47 42 60 61 13 19 29 40 35 46 7 6 22 34 35 61 19 39 23 66 23
134 0 90 -4 130 -14 130 -3 0 -11 15 -18 33 -20 56 -95 124 -191 174 -71 38
-121 74 -121 89 0 8 -4 14 -10 14 -5 0 -9 3 -8 8 0 4 -1 14 -4 22 -3 8 -13 36
-22 62 -10 25 -24 52 -32 58 -7 7 -14 18 -14 24 0 12 -40 42 -52 38 -5 -1 -8
3 -8 8 0 6 -11 10 -24 10 -14 0 -27 4 -30 9 -6 10 -33 8 -123 -9 -35 -7 -61
-16 -58 -20 14 -23 -143 -27 -186 -5 -56 30 -68 119 -25 203 14 28 31 52 37
52 5 0 8 4 5 9 -3 4 7 19 22 33 43 40 95 108 114 150 9 21 14 38 11 38 -3 0
-1 6 4 13 5 6 11 30 12 51 2 22 10 50 19 64 14 22 57 47 75 44 4 -1 7 2 7 7 0
8 82 7 120 -2 75 -17 142 -76 176 -152 19 -45 23 -70 23 -154 0 -56 -4 -101
-8 -101 -4 0 -8 -7 -8 -15 0 -8 5 -15 11 -15 6 0 5 -4 -3 -9 -9 -6 -10 -11 -2
-15 8 -5 8 -13 0 -28 -6 -11 -7 -23 -3 -27 5 -3 11 -17 12 -31 4 -27 25 -75
45 -101 7 -9 36 -29 65 -44 45 -23 61 -27 105 -22 51 5 107 24 107 36 0 4 -19
5 -41 3 -28 -3 -44 0 -50 9 -6 9 -9 10 -9 2 0 -8 -9 -9 -29 -3 -16 4 -32 6
-35 2 -3 -3 -6 0 -6 6 0 7 -7 12 -15 12 -24 0 -83 69 -90 107 -8 45 -5 245 5
289 9 39 43 74 72 74 10 0 30 -7 43 -16 14 -9 25 -13 25 -9 0 5 8 -1 18 -12
53 -62 72 -88 72 -100 0 -7 5 -13 11 -13 5 0 8 -4 4 -9 -3 -5 -1 -12 5 -16 5
-3 10 -14 10 -24 0 -26 43 -62 80 -68 18 -2 45 -10 59 -15 14 -6 29 -11 33
-10 7 2 101 -89 126 -121 18 -23 43 -97 37 -107 -3 -5 -1 -11 4 -14 11 -7 13
-104 1 -111 -5 -3 -7 -14 -5 -25 2 -11 -1 -20 -6 -20 -6 0 -8 -4 -4 -10 3 -5
-10 -25 -29 -45 -19 -19 -31 -35 -28 -35 15 -1 -44 -29 -60 -30 -10 0 -18 -4
-18 -9 0 -5 -22 -8 -49 -6 -66 4 -86 -10 -41 -28 77 -32 166 -1 248 87 24 25
48 46 53 46 33 0 120 -82 138 -130 5 -14 12 -34 17 -45 11 -31 12 -138 0 -163
-8 -19 -15 -22 -35 -17 -15 3 -34 6 -44 6 -10 0 -29 4 -41 9 -13 5 -29 4 -37
-1 -11 -7 -9 -10 9 -15 12 -4 22 -9 22 -13 0 -3 15 -12 33 -20 78 -34 134
-126 141 -236 1 -16 5 -36 9 -42 5 -7 5 -13 0 -13 -4 0 -8 -15 -7 -32 1 -45
-14 -75 -41 -81 -24 -4 -85 17 -95 33 -5 7 -26 14 -105 33 -5 1 -16 6 -23 11
-7 4 -19 5 -27 2 -8 -3 -15 -2 -15 2 0 4 -14 13 -30 20 -17 8 -48 31 -70 53
l-39 39 6 -42 c3 -24 6 -47 6 -53 0 -27 -15 -151 -20 -158 -2 -4 -7 -20 -9
-35 -3 -15 -9 -31 -15 -36 -5 -6 -9 -18 -9 -28 0 -10 -5 -18 -11 -18 -5 0 -8
-4 -5 -8 3 -5 -6 -20 -20 -35 -14 -15 -23 -27 -20 -27 8 0 -79 -83 -112 -107
-17 -13 -36 -23 -42 -23 -5 0 -10 -5 -10 -11 0 -5 -4 -8 -9 -5 -5 4 -11 3 -13
-1 -6 -14 -79 -43 -90 -37 -6 4 -8 2 -5 -3 6 -10 -34 -24 -78 -27 -11 -1 -24
-4 -30 -7 -5 -3 -35 -5 -65 -4 -30 1 -61 -3 -67 -8 -9 -6 -13 -6 -13 1 0 6
-10 8 -22 4 -21 -5 -21 -6 7 -14 17 -5 49 -11 71 -14 23 -2 52 -7 63 -9 12 -2
19 0 16 6 -4 6 13 9 42 8 26 -1 65 5 85 14 20 8 39 13 42 9 3 -3 6 -1 6 5 0 5
19 16 43 23 23 7 45 17 49 24 4 6 11 12 15 12 27 5 52 17 48 24 -7 11 59 22
89 14 37 -9 50 -51 41 -137 -4 -39 -7 -78 -8 -84 0 -7 -4 -13 -9 -13 -5 0 -7
-9 -3 -19 3 -11 1 -22 -5 -26 -6 -3 -8 -10 -6 -14 3 -4 -2 -17 -12 -27 -9 -11
-25 -35 -35 -54 -32 -63 -108 -132 -174 -161 -18 -8 -33 -17 -33 -21 0 -5 -3
-7 -7 -7 -5 1 -11 0 -15 -1 -5 -1 -11 -3 -15 -5 -5 -1 -15 -4 -23 -7 -8 -3
-29 -9 -45 -15 -35 -11 -221 -10 -247 1 -12 5 -18 4 -18 -4 0 -6 9 -14 20 -17
11 -3 20 -10 20 -15 0 -5 5 -6 10 -3 6 3 10 1 10 -6 0 -7 3 -9 6 -6 14 13 45
-37 39 -61 -7 -27 -11 -32 -78 -104 -26 -28 -45 -53 -43 -55 2 -2 10 3 19 11
8 8 17 12 21 9 3 -3 8 2 12 11 3 9 12 16 19 16 7 0 52 36 100 80 48 44 96 82
106 85 11 4 19 11 19 16 0 6 4 8 9 4 5 -3 12 -1 16 5 3 5 17 10 30 10 13 0 26
3 29 8 7 12 78 7 106 -8 29 -15 50 -41 44 -52 -3 -5 -1 -8 5 -8 5 0 10 -8 10
-17 1 -10 3 -34 7 -54 5 -28 -8 -120 -22 -159 -12 -36 -30 -70 -36 -70 -4 0
-8 -6 -8 -14 0 -7 -7 -19 -15 -26 -8 -7 -12 -16 -9 -21 3 -5 0 -9 -7 -9 -7 0
-10 -3 -7 -6 8 -8 43 12 72 41 22 22 42 67 51 113 2 9 4 17 6 17 1 0 3 23 5
50 1 28 5 61 8 75 3 14 7 50 7 80 1 30 4 59 7 64 3 6 6 37 7 71 0 33 3 65 7
70 3 6 9 33 13 60 4 28 10 55 14 60 4 6 7 17 6 25 -1 8 8 33 19 55 11 22 21
42 21 45 4 14 32 67 45 84 41 52 135 136 152 136 4 0 8 7 8 15 0 12 -5 13 -17
7 -25 -12 -135 -36 -153 -33 -24 4 -50 44 -43 66 4 11 7 31 8 45 1 14 4 32 8
40 3 8 10 35 16 60 42 187 57 207 149 205 31 -1 66 -5 77 -9 70 -25 110 -55
166 -124 27 -32 51 -120 55 -198 3 -74 -17 -176 -36 -182 -5 -2 -8 -8 -5 -13
6 -8 -18 -47 -60 -97 -20 -23 -100 -77 -166 -110 -39 -20 -47 -37 -19 -39 11
-1 20 3 20 8 0 6 6 7 12 3 17 -11 48 -12 48 -3 0 5 6 6 13 4 15 -6 37 -52 29
-60 -11 -10 -12 -46 -2 -40 13 8 -101 -211 -156 -300 -13 -22 -27 -47 -31 -55
-8 -19 -106 -162 -145 -211 -15 -20 -28 -42 -28 -48 0 -6 -4 -11 -9 -11 -5 0
-12 -11 -15 -25 -4 -14 -11 -25 -16 -25 -6 0 -10 -7 -10 -15 0 -8 -4 -15 -9
-15 -5 0 -15 -16 -22 -35 -7 -19 -17 -35 -23 -35 -5 0 -7 -3 -3 -6 3 -3 -7
-27 -23 -52 -15 -26 -31 -57 -35 -69 -3 -13 -11 -23 -16 -23 -5 0 -8 -3 -7 -7
3 -13 -23 -83 -31 -83 -4 0 -8 -6 -8 -12 -1 -16 -56 -171 -63 -178 -3 -3 -6
-12 -7 -20 -1 -8 -9 -40 -18 -70 -25 -86 -26 -92 -37 -150 -5 -30 -13 -64 -18
-75 -10 -23 -34 -163 -28 -168 1 -2 -2 -10 -9 -18 -6 -8 -14 -31 -18 -51 -4
-21 -11 -38 -16 -38 -5 0 -9 -7 -9 -15 0 -9 -11 -27 -25 -40 -13 -14 -21 -25
-17 -25 8 0 -60 -44 -70 -45 -3 0 -10 -3 -14 -7 -4 -5 -18 -8 -31 -8 -13 0
-23 -4 -23 -8 0 -4 -10 -8 -22 -9 -22 0 -78 -10 -108 -18 -30 -8 -116 -18
-162 -19 -25 -1 -44 -5 -41 -9 2 -4 -10 -7 -29 -6 -18 1 -60 -2 -93 -6 -75
-11 -570 -13 -610 -3 -31 7 -121 17 -187 20 -21 1 -38 6 -38 11 0 4 -6 7 -12
5 -7 -1 -38 2 -68 7 -30 4 -59 7 -64 6 -4 -1 -13 2 -20 7 -6 5 -19 8 -28 7
-10 -2 -20 1 -24 6 -3 5 -14 9 -24 9 -10 0 -31 5 -47 12 -15 6 -31 11 -35 10
-5 -1 -8 3 -8 8 0 6 -4 10 -9 10 -22 0 -81 69 -105 121 -25 56 -48 139 -39
139 3 0 0 7 -7 15 -7 8 -10 21 -7 30 4 8 2 17 -2 19 -5 3 -11 28 -15 55 -4 28
-11 53 -16 56 -6 4 -8 10 -5 15 5 8 -21 132 -36 165 -4 11 -13 40 -20 65 -6
25 -15 50 -19 55 -5 6 -9 13 -9 18 0 4 -8 24 -17 45 -9 20 -17 42 -18 47 -1 6
-18 43 -39 83 -20 39 -34 72 -29 72 4 0 2 4 -4 8 -13 9 -104 167 -104 182 0 5
-4 10 -8 10 -5 0 -22 27 -38 60 -16 33 -33 60 -37 60 -5 0 -5 5 -2 10 3 6 2
10 -3 10 -6 0 -15 12 -21 28 -6 15 -23 48 -38 73 -116 195 -163 277 -163 286
0 6 -5 13 -10 15 -16 5 -26 108 -11 108 7 0 10 4 7 9 -4 5 8 21 25 35 39 33
92 34 148 4 22 -12 44 -19 47 -15 14 14 -38 76 -74 89 -40 13 -40 13 -123 27
-72 11 -132 42 -181 94 -39 41 -85 117 -71 117 4 0 2 5 -5 12 -20 20 -15 146
8 197 27 59 56 86 121 114 83 36 170 27 282 -29 38 -19 70 -34 72 -34 1 0 5
48 9 108 4 59 8 121 9 137 1 17 6 36 11 44 7 11 6 12 -5 6 -11 -7 -12 -6 -3 6
7 8 15 30 19 49 15 73 87 160 165 200 81 41 227 43 303 4 44 -23 94 -72 106
-103 5 -14 13 -35 17 -46 4 -11 8 -110 10 -220 2 -200 8 -250 40 -315 19 -40
86 -106 118 -116 12 -4 23 -10 26 -13 5 -6 88 -31 120 -36 41 -6 96 -46 83
-59 -4 -3 -2 -6 4 -6 6 0 14 -20 17 -44 4 -24 14 -50 21 -56 8 -7 15 -19 15
-26 0 -19 79 -104 95 -104 8 0 15 -5 17 -12 2 -6 9 -8 15 -5 8 5 5 20 -10 50
-12 23 -25 44 -28 47 -3 3 -12 22 -20 43 -7 20 -17 37 -21 37 -4 0 -8 9 -8 19
0 11 -6 26 -13 33 -16 17 -16 21 13 93 4 11 20 27 36 35 46 23 157 140 184
195 14 28 27 52 30 55 3 3 7 12 9 20 2 8 15 57 28 109 29 111 43 127 128 136
33 4 64 10 70 13 5 3 16 7 25 8 34 6 49 11 103 38 31 16 57 33 57 38 0 5 5 6
10 3 6 -3 10 -2 10 4 0 9 68 37 81 33 63 -16 229 -18 257 -3 11 6 22 7 26 4 3
-3 6 -2 6 4 0 6 12 14 26 17 30 8 42 17 101 75 50 49 50 64 1 33 -69 -44 -163
-86 -193 -87 -17 -1 -37 -5 -44 -9 -6 -4 -18 -3 -25 3 -7 6 -15 9 -18 6 -12
-12 -101 26 -132 57 -55 55 -75 104 -72 178 3 70 5 79 27 125 18 38 26 49 72
95 41 43 43 47 22 47 -8 0 -15 -4 -15 -9 0 -4 -7 -8 -15 -8 -9 0 -18 -7 -21
-15 -4 -8 -9 -13 -13 -10 -5 2 -17 -8 -28 -23 -27 -36 -65 -112 -57 -112 4 0
2 -6 -4 -13 -6 -7 -10 -72 -9 -162 0 -118 -3 -156 -15 -180 -21 -39 -46 -61
-83 -70 -16 -4 -39 -9 -50 -12 -11 -3 -55 -5 -97 -6 -85 -1 -100 7 -113 66 -4
15 -11 27 -16 27 -5 0 -8 3 -7 8 3 14 -25 61 -34 56 -11 -7 -7 -46 6 -56 12
-8 12 -268 0 -277 -5 -3 -9 -10 -9 -16 -1 -28 -30 -121 -42 -133 -7 -7 -13
-20 -13 -28 0 -8 -5 -14 -11 -14 -5 0 -7 -4 -4 -10 3 -5 2 -10 -3 -10 -5 0
-15 -11 -22 -25 -7 -13 -22 -27 -32 -31 -11 -3 -17 -9 -13 -12 10 -10 -97 -72
-153 -88 -49 -14 -150 -15 -192 -2 -74 24 -122 64 -155 128 -36 72 -46 142
-49 340 -3 177 -12 201 -101 287 -67 63 -74 73 -52 73 21 0 95 56 150 112 56
57 64 69 114 167 31 61 77 106 95 95 4 -3 8 1 8 8 1 8 5 7 14 -5 16 -20 19
-94 5 -102 -5 -4 -6 -11 -3 -17 4 -6 2 -13 -4 -17 -16 -10 -23 -155 -12 -229
14 -86 14 -86 20 -92 3 -3 15 -36 27 -75 37 -116 45 -149 46 -192 1 -18 5 -33
9 -33 4 0 8 -13 8 -30 0 -27 18 -44 21 -20 2 13 4 21 12 40 7 19 6 50 -3 50
-4 0 -6 12 -6 28 0 31 -20 108 -34 134 -6 10 -10 22 -10 27 0 5 -7 26 -17 47
-9 22 -17 46 -19 54 -1 8 -8 35 -14 60 -35 137 14 265 114 301 20 7 36 17 36
23 0 5 3 6 6 3 4 -3 14 -2 23 3 9 4 37 11 61 15 24 4 51 10 60 15 8 4 18 9 22
10 4 1 17 4 28 7 11 3 20 10 20 15 0 5 5 6 12 2 7 -4 8 -3 4 4 -5 8 0 12 12
12 23 0 45 23 34 35 -4 5 -2 6 3 2 6 -3 19 1 30 9 10 8 15 14 11 14 -4 0 0 7
8 16 20 20 21 35 1 27 -9 -3 -14 -8 -11 -10 7 -7 -27 -43 -41 -43 -7 0 -13 -6
-13 -12 0 -15 -45 -38 -72 -38 -10 0 -18 -4 -18 -9 0 -6 -21 -13 -47 -17 -112
-17 -225 -4 -308 36 -58 28 -135 91 -135 110 0 5 -6 13 -13 17 -7 4 -18 20
-24 36 -7 15 -18 27 -25 26 -10 0 -10 -2 -1 -5 7 -3 10 -11 7 -18 -2 -6 2 -28
10 -48 45 -106 33 -240 -28 -330 -13 -20 -22 -39 -19 -42 3 -3 -2 -8 -11 -12
-9 -3 -16 -10 -16 -15 0 -14 -82 -88 -112 -102 -15 -6 -28 -15 -28 -19 0 -3
-8 -5 -17 -4 -10 2 -20 0 -23 -5 -3 -4 -28 -10 -55 -14 -27 -3 -51 -7 -53 -10
-2 -2 -14 0 -26 5 -22 8 -88 21 -113 23 -7 0 -13 4 -13 9 0 4 -6 8 -14 8 -21
0 -116 95 -116 117 0 11 -3 23 -7 27 -5 4 -8 13 -8 19 0 5 -5 12 -12 14 -7 3
-9 -3 -6 -16 3 -12 10 -21 17 -21 6 0 4 -5 -4 -10 -11 -7 -11 -10 -2 -10 7 0
12 -6 11 -12 -1 -7 2 -22 6 -33 10 -25 85 -99 108 -108 25 -10 21 -25 -14 -42
-52 -28 -139 -110 -139 -132 0 -7 -4 -13 -10 -13 -11 0 -60 -99 -60 -122 0 -8
-3 -18 -7 -22 -8 -7 -11 -29 -18 -115 -2 -30 -6 -56 -8 -58 -2 -2 -68 -4 -146
-4 -138 0 -221 12 -221 31 0 6 -7 10 -15 10 -8 0 -22 11 -32 25 -10 14 -26 35
-35 47 -10 11 -18 27 -18 35 0 7 -5 13 -11 13 -6 0 -9 7 -6 15 4 8 2 17 -3 20
-5 3 -10 16 -10 28 -1 133 -1 132 15 197 2 8 4 19 4 24 1 12 41 -30 41 -42 0
-5 11 -21 25 -36 14 -15 25 -31 25 -35 0 -8 77 -64 93 -67 4 -1 9 -3 12 -4 5
-2 36 -3 57 -1 7 1 -8 16 -32 34 -45 32 -125 107 -115 107 3 0 -1 10 -9 23
-24 38 -46 128 -46 191 0 75 10 137 20 131 4 -3 11 7 14 21 9 36 82 103 148
137 79 39 88 37 75 -15 -13 -59 -20 -239 -9 -250 5 -5 9 -3 9 4 2 31 19 146
23 158 1 3 2 9 1 14 -4 20 73 157 105 185 19 17 34 29 34 26 0 -6 13 4 45 33
8 7 15 11 15 9 0 -3 21 3 48 13 26 9 53 15 60 13 6 -3 12 -1 12 4 0 10 108 9
132 -1 25 -11 41 -67 28 -100 -6 -18 -6 -25 0 -21 6 3 10 1 10 -4 0 -6 -4 -11
-9 -11 -6 0 -6 -11 0 -27 4 -16 11 -40 14 -55 3 -16 11 -28 18 -28 9 0 12 29
12 107 0 95 3 114 25 157 14 27 43 68 66 91 41 43 123 89 157 88 9 0 17 4 17
8 0 12 37 11 61 -1 17 -10 49 -59 49 -77 1 -38 15 -83 29 -88 13 -5 14 -4 4 6
-7 7 -13 29 -14 49 -1 19 -4 46 -8 60 -7 23 0 71 16 110 3 8 5 18 5 23 -1 4 2
7 8 7 5 0 10 6 10 14 0 13 38 56 71 81 38 29 173 72 207 66 6 -1 12 2 12 8 0
5 11 8 25 6 14 -1 28 2 31 6 3 5 13 9 22 10 19 0 142 57 127 59 -5 0 -3 5 5
10 12 8 10 10 -11 10 -14 0 -29 -3 -33 -7 -4 -5 -11 -8 -14 -9 -18 -1 -129
-26 -142 -31 -8 -4 -35 -7 -60 -8 -67 -2 -140 39 -175 100 -16 30 -16 32 6 69
23 39 130 126 155 126 8 0 14 5 14 11 0 5 4 8 9 4 5 -3 12 -1 15 4 4 5 24 12
46 16 22 4 40 10 40 15 0 8 96 23 178 28 24 2 79 -2 122 -9z m-755 -224 c38
-10 93 -42 125 -73 19 -19 25 -34 25 -70 0 -27 -5 -47 -12 -49 -7 -3 -13 -10
-13 -16 0 -16 -91 -107 -107 -107 -8 0 -16 -7 -19 -15 -4 -8 -11 -15 -16 -15
-6 0 -27 -13 -48 -30 -21 -16 -41 -30 -44 -30 -7 0 -20 -10 -51 -37 -7 -7 -18
-13 -22 -13 -5 0 -19 -9 -31 -20 -12 -12 -22 -17 -22 -13 0 4 -4 3 -8 -2 -15
-22 -89 -65 -110 -65 -12 0 -22 -4 -22 -10 0 -5 -19 -9 -42 -8 -82 2 -217 -35
-239 -65 -3 -5 -9 -8 -13 -8 -13 2 -76 -28 -76 -37 0 -22 -93 -47 -128 -34 -7
2 -19 16 -26 29 -11 21 -10 32 1 65 7 22 20 47 28 55 8 8 15 20 16 26 0 7 20
28 45 47 24 19 50 40 57 46 7 6 23 15 35 18 12 4 22 11 22 16 0 5 9 7 20 5 11
-2 20 0 20 5 0 5 16 12 35 16 19 3 35 10 35 15 0 4 9 6 20 4 11 -2 20 0 20 6
0 5 8 9 18 9 10 0 26 6 37 14 11 7 46 19 78 26 31 7 57 16 57 20 0 4 14 10 32
14 17 3 60 20 95 36 53 25 61 33 51 44 -11 11 -18 12 -43 2 -16 -7 -36 -11
-42 -9 -7 3 -13 0 -13 -6 0 -5 -11 -8 -25 -5 -14 2 -25 0 -25 -5 0 -5 -25 -12
-55 -16 -30 -3 -55 -10 -55 -15 0 -12 -33 -5 -38 8 -2 7 1 12 7 12 6 0 8 6 5
14 -3 7 2 16 10 19 9 4 16 11 16 18 0 15 62 79 77 79 7 0 13 4 13 8 0 13 135
80 177 88 21 3 43 9 50 13 16 8 80 6 118 -4z m43 -4420 c12 0 22 -3 22 -6 0
-4 6 -6 13 -6 6 1 46 -5 87 -13 41 -8 84 -14 95 -15 11 0 25 -3 30 -7 12 -7
180 -23 215 -20 14 1 32 -1 40 -5 21 -9 530 -10 530 0 0 4 12 7 28 6 36 -3
192 11 217 18 11 4 31 7 45 9 21 2 74 12 160 29 8 2 15 4 15 5 0 1 12 3 27 5
23 3 29 -1 34 -22 4 -16 2 -28 -7 -34 -8 -5 -10 -9 -6 -9 24 0 -42 -41 -73
-45 -3 0 -11 -4 -17 -8 -7 -5 -17 -6 -22 -2 -5 3 -12 1 -15 -4 -5 -8 -92 -26
-108 -23 -5 1 -8 -2 -8 -7 0 -5 -23 -12 -50 -16 -28 -4 -48 -11 -45 -15 3 -5
-10 -7 -30 -6 -19 2 -35 0 -35 -5 0 -5 -3 -8 -7 -7 -5 1 -30 -2 -58 -6 -27 -4
-67 -7 -87 -8 -21 -1 -38 -4 -38 -7 0 -3 -33 -6 -72 -6 -40 0 -79 -4 -87 -10
-12 -8 -13 -7 -6 4 6 10 4 12 -6 5 -17 -10 -169 -16 -169 -6 0 4 -42 7 -93 6
-50 0 -96 3 -102 7 -10 7 -100 18 -148 19 -16 0 -34 3 -40 7 -18 11 -36 12
-42 3 -3 -5 4 -11 15 -15 11 -3 20 -10 20 -15 0 -4 8 -7 18 -5 9 1 22 -1 27
-5 9 -6 37 -15 85 -27 8 -2 29 -5 47 -7 17 -2 35 -6 40 -9 38 -22 525 -22 583
0 8 3 29 7 45 9 93 10 111 12 125 17 8 4 29 8 45 11 17 3 39 7 50 10 87 24
142 38 153 38 6 1 12 4 12 8 0 4 6 7 13 8 6 0 22 4 34 7 18 6 23 2 29 -19 3
-14 9 -26 13 -26 4 0 7 -8 6 -17 -2 -27 -25 -64 -35 -58 -5 3 -13 -2 -18 -11
-5 -9 -13 -16 -18 -16 -5 0 -19 -4 -32 -9 -13 -5 -28 -9 -33 -9 -5 0 -9 -4 -9
-10 0 -5 -3 -9 -7 -8 -5 1 -37 -7 -73 -19 -75 -24 -168 -43 -217 -43 -19 0
-32 -4 -29 -8 5 -9 -408 -7 -504 2 -30 3 -102 8 -160 12 -58 4 -109 9 -115 13
-5 3 -17 6 -25 5 -8 -1 -23 -2 -33 -3 -10 0 -17 -7 -14 -13 2 -7 12 -12 22
-10 11 2 14 -1 10 -9 -5 -7 -3 -10 6 -7 8 3 34 -2 59 -10 25 -8 54 -16 65 -18
11 -2 27 -5 35 -7 14 -4 68 -12 135 -21 17 -2 30 -5 30 -6 0 -4 140 -11 225
-11 105 -1 214 6 227 14 5 3 30 7 56 8 26 2 47 5 47 9 0 3 12 5 28 4 15 -1 32
1 37 5 13 7 19 9 87 22 32 6 55 15 52 20 -3 5 6 9 20 9 14 0 51 10 82 21 55
21 58 21 71 3 21 -28 16 -84 -9 -106 -12 -10 -27 -17 -34 -14 -7 3 -14 1 -16
-4 -2 -5 -14 -11 -28 -13 -14 -3 -38 -10 -55 -17 -16 -6 -32 -11 -35 -11 -3 0
-23 -5 -45 -11 -22 -6 -47 -12 -55 -12 -8 0 -17 -3 -20 -7 -3 -4 -25 -10 -50
-14 -25 -3 -60 -10 -78 -15 -19 -5 -39 -7 -47 -4 -7 3 -16 1 -20 -5 -3 -6 -11
-11 -16 -11 -6 0 -7 6 -3 13 6 8 3 8 -9 -2 -14 -11 -83 -12 -374 -9 -197 3
-364 6 -372 9 -7 2 -16 -2 -18 -8 -3 -8 4 -13 17 -13 12 0 19 -4 16 -9 -3 -4
22 -14 57 -21 34 -7 68 -18 76 -24 12 -9 13 -8 6 4 -8 13 -7 13 10 0 15 -12
61 -15 269 -15 138 0 267 4 286 7 19 4 87 16 150 27 122 20 212 41 220 51 3 3
12 5 20 5 8 -1 20 1 25 4 6 3 12 6 15 6 3 1 22 7 44 14 33 11 40 11 53 -2 20
-20 25 -68 9 -89 -17 -23 -229 -93 -248 -82 -4 3 -8 1 -8 -5 0 -5 -21 -13 -47
-17 -27 -3 -52 -9 -58 -12 -5 -3 -16 -7 -25 -8 -8 -1 -40 -7 -70 -13 -30 -6
-77 -12 -105 -15 -27 -2 -50 -5 -50 -6 0 -2 -34 -3 -75 -4 -41 -1 -80 -4 -85
-8 -6 -4 -17 -3 -25 2 -9 5 -19 5 -27 -2 -9 -7 -13 -7 -13 1 0 7 -5 9 -12 5
-16 -10 -48 -13 -48 -4 0 4 -30 6 -67 5 -38 -1 -72 0 -78 3 -5 4 -24 7 -42 9
-18 1 -61 7 -95 13 -59 11 -100 14 -123 11 -5 -1 14 -10 44 -20 30 -11 61 -16
69 -13 10 3 13 1 8 -6 -5 -8 1 -12 17 -12 13 0 46 -7 73 -15 27 -8 78 -18 114
-21 36 -4 74 -10 85 -13 23 -8 354 -6 405 2 19 3 60 8 90 12 30 3 61 12 69 18
12 10 13 9 6 -3 -7 -13 -6 -13 7 -2 9 7 20 12 24 11 5 -1 11 0 14 1 3 1 17 4
32 6 15 3 46 11 69 19 22 8 45 12 50 9 5 -3 9 0 9 5 0 6 9 11 19 11 11 0 22 4
26 9 3 6 14 8 25 6 11 -2 20 0 20 6 0 5 5 9 10 9 19 0 10 -20 -25 -58 -31 -35
-145 -98 -193 -107 -9 -2 -17 -4 -17 -5 0 -2 -36 -10 -77 -17 -21 -3 -38 -9
-38 -12 0 -4 -12 -6 -27 -6 -16 1 -34 -3 -41 -8 -7 -6 -15 -7 -18 -5 -3 3 -22
2 -42 -3 -109 -27 -460 -28 -562 -3 -14 4 -36 8 -50 10 -26 3 -29 3 -130 29
-80 20 -79 19 -113 33 -16 7 -32 12 -37 12 -5 0 -10 3 -12 8 -1 4 -16 14 -32
22 -53 27 -71 72 -74 190 -3 140 -11 241 -21 257 -4 8 -2 39 4 71 12 58 10 92
-6 92 -5 0 -9 7 -9 15 0 8 -6 24 -12 35 -11 17 -10 22 2 30 24 15 19 98 -10
165 -21 49 -20 66 4 58 12 -4 31 -7 44 -8z m932 -1277 c0 -10 -80 -32 -109
-30 -14 1 -29 -2 -35 -6 -16 -12 -76 -15 -76 -4 0 5 -12 8 -27 8 -32 -1 -123
24 -123 33 0 3 83 6 185 6 102 0 185 -3 185 -7z"/>
<path d="M3480 5380 c0 -5 5 -10 11 -10 5 0 7 5 4 10 -3 6 -8 10 -11 10 -2 0
-4 -4 -4 -10z"/>
<path d="M2340 5166 c0 -2 6 -9 13 -15 10 -8 14 -7 14 4 0 8 -6 15 -14 15 -7
0 -13 -2 -13 -4z"/>
<path d="M2090 5069 c0 -5 5 -7 10 -4 6 3 10 8 10 11 0 2 -4 4 -10 4 -5 0 -10
-5 -10 -11z"/>
<path d="M2407 4355 c7 -43 6 -126 -1 -155 -3 -14 -9 -40 -12 -57 -3 -18 -10
-33 -15 -33 -5 0 -9 -7 -9 -14 0 -8 -12 -28 -26 -43 -14 -15 -29 -32 -32 -38
-12 -18 -85 -70 -127 -91 -31 -15 -61 -19 -129 -18 -57 0 -91 4 -94 12 -2 6
-10 8 -18 5 -8 -3 -14 -1 -14 5 0 5 -9 12 -19 15 -15 3 -18 1 -13 -11 8 -21
53 -61 70 -62 6 0 12 -4 12 -9 0 -6 9 -8 20 -6 11 2 20 -1 20 -7 0 -7 4 -7 13
1 8 6 17 8 20 5 9 -9 67 -13 67 -4 0 3 10 6 23 5 12 -1 27 1 32 5 11 8 83 23
88 18 2 -2 11 3 20 10 13 11 22 11 51 -3 20 -10 36 -24 36 -32 0 -8 4 -12 9
-9 5 4 12 -13 16 -36 4 -24 13 -46 19 -50 8 -5 8 -8 0 -8 -6 0 -10 -15 -9 -34
5 -72 -29 -196 -60 -218 -5 -4 -6 -8 -2 -8 5 0 -8 -17 -27 -37 -20 -21 -36
-41 -36 -45 0 -5 -7 -8 -15 -8 -8 0 -15 -4 -15 -8 0 -8 -23 -22 -55 -33 -15
-5 -45 -32 -41 -37 2 -2 18 -6 35 -8 29 -5 96 -34 78 -34 -4 0 -1 -10 7 -22 7
-13 17 -40 20 -60 8 -44 40 -120 48 -112 3 2 8 -7 12 -20 3 -14 12 -25 19 -23
21 4 27 21 13 42 -38 59 -50 167 -29 260 8 32 32 96 54 142 22 45 39 85 39 89
-1 4 3 10 8 13 6 3 13 22 15 41 3 19 6 37 7 40 8 21 -7 151 -18 160 -4 3 -8
12 -10 20 -2 8 -10 29 -19 45 -15 29 -25 125 -13 125 4 0 7 6 8 13 8 58 15 87
22 87 5 0 7 8 6 17 -2 9 0 34 4 55 4 21 4 38 0 38 -4 0 -6 16 -5 36 1 19 -2
37 -6 39 -4 3 -10 21 -14 42 -4 25 -9 32 -15 23 -7 -11 -9 -10 -13 1 -2 8 -2
1 0 -16z"/>
<path d="M3588 3568 c-10 -10 -18 -20 -18 -23 0 -11 -5 -26 -19 -60 -7 -16
-15 -41 -17 -54 -9 -46 -55 -109 -86 -119 -5 -1 -9 -2 -10 -3 -6 -1 -34 -8
-57 -13 -13 -3 -41 -6 -62 -8 -22 -1 -39 -5 -39 -8 0 -13 -189 4 -200 19 -3 3
-18 7 -34 8 -16 1 -32 6 -35 11 -3 5 -17 13 -31 17 -13 4 -29 13 -35 19 -7 6
-31 27 -55 46 -24 19 -55 45 -68 58 -14 12 -26 22 -27 22 -5 0 -1 -36 5 -40 4
-3 14 -27 23 -55 18 -62 10 -83 -55 -147 -26 -26 -48 -50 -48 -53 0 -8 36 -6
44 3 4 4 11 7 15 7 9 0 84 38 91 46 7 8 79 32 105 34 31 2 98 -25 118 -49 23
-26 57 -98 63 -133 13 -68 58 -134 102 -148 l24 -7 -24 44 c-12 23 -26 45 -31
46 -4 2 -5 8 -1 13 3 5 1 9 -5 9 -11 0 -25 51 -25 94 0 40 35 63 109 71 32 4
62 8 65 10 34 21 200 25 220 5 16 -16 100 -70 109 -70 6 0 11 -4 11 -9 0 -5
15 -13 33 -16 17 -4 37 -12 44 -17 7 -6 50 -9 95 -9 108 2 118 3 118 13 0 4 9
8 20 8 27 0 68 20 74 36 4 10 -3 12 -27 7 -18 -3 -39 -9 -47 -13 -8 -5 -27 -7
-42 -5 -16 2 -30 -1 -34 -6 -3 -5 -10 -6 -16 -3 -6 4 -33 8 -62 9 -61 2 -166
31 -166 46 0 6 -4 8 -8 5 -20 -12 -102 104 -102 143 0 10 -3 21 -7 25 -10 9
-11 68 -2 86 8 17 31 122 27 125 -2 1 -11 -7 -20 -17z"/>
<path d="M4210 3241 c0 -6 -10 -16 -22 -21 -16 -6 -18 -9 -7 -9 19 -1 45 26
35 36 -3 3 -6 1 -6 -6z"/>
<path d="M4120 3180 c-8 -5 -10 -10 -5 -10 6 0 17 5 25 10 8 5 11 10 5 10 -5
0 -17 -5 -25 -10z"/>
<path d="M2895 850 c-3 -5 -1 -10 4 -10 6 0 11 5 11 10 0 6 -2 10 -4 10 -3 0
-8 -4 -11 -10z"/>
</g>
</svg>
